@startuml ex ISP
interface Door
class SensingDoor
class TimedDoor
class Timer
class Sensor
Door : + lock()
Door : + unlock()
Door : + open()
Door : + close()
Door : + proximityCallBack()
Door : + timeoutCallBack()
SensingDoor : - boolean _locked
SensingDoor : - boolean _open
TimedDoor : - int TIME_OUT
TimedDoor : - boolean _locked
TimedDoor : - boolean _open
Sensor : + isPersonClose()
SensingDoor --|> Door
TimedDoor --|> Door
Timer --> Door : "register"
Sensor --> Door : "register"

@enduml